<mxfile host="app.diagrams.net" modified="2023-03-15T11:43:14.197Z" agent="5.0 (Windows NT 10.0) AppleWebKit/537.36 (KHTML, like Gecko) Chrome/111.0.0.0 Safari/537.36 Edg/111.0.1661.41" etag="6vVVWSCgfB1GDlw5xVjp" version="21.0.6" type="github">
  <diagram name="페이지-1" id="l79hUrKTXK1C4NnOyxBR">
    <mxGraphModel dx="1982" dy="5464" grid="0" gridSize="10" guides="1" tooltips="1" connect="1" arrows="1" fold="1" page="1" pageScale="1" pageWidth="3300" pageHeight="4681" math="0" shadow="0">
      <root>
        <mxCell id="0" />
        <mxCell id="1" parent="0" />
        <mxCell id="BK236hr4UTo6OThJQr9j-5" value="&lt;h1 style=&quot;&quot;&gt;&lt;div style=&quot;border-color: var(--border-color);&quot;&gt;&lt;font style=&quot;font-size: 20px;&quot;&gt;기차 예약&lt;/font&gt;&lt;/div&gt;&lt;div style=&quot;font-size: 13px; border-color: var(--border-color);&quot;&gt;&lt;br&gt;&lt;/div&gt;&lt;div style=&quot;font-size: 13px; border-color: var(--border-color); font-weight: 400;&quot;&gt;&lt;span style=&quot;border-color: var(--border-color); background-color: initial;&quot;&gt;1. 출발 역, 도착 역, 출발 시간,인원을 입력하면 해당&lt;/span&gt;&lt;/div&gt;&lt;div style=&quot;font-size: 13px; border-color: var(--border-color); font-weight: 400;&quot;&gt;&lt;span style=&quot;border-color: var(--border-color); background-color: initial;&quot;&gt;&amp;nbsp; 해당 시간 이후의 열차 중에 출발역과 도착역을 거치는&lt;/span&gt;&lt;/div&gt;&lt;div style=&quot;font-size: 13px; border-color: var(--border-color); font-weight: 400;&quot;&gt;&lt;span style=&quot;border-color: var(--border-color); background-color: initial;&quot;&gt;&amp;nbsp; 열차를 반환&amp;nbsp;&lt;/span&gt;&lt;/div&gt;&lt;div style=&quot;font-size: 13px; border-color: var(--border-color); font-weight: 400;&quot;&gt;&lt;span style=&quot;border-color: var(--border-color); background-color: initial;&quot;&gt;&lt;br style=&quot;border-color: var(--border-color);&quot;&gt;&lt;/span&gt;&lt;/div&gt;&lt;div style=&quot;font-size: 13px; border-color: var(--border-color); font-weight: 400;&quot;&gt;&lt;br&gt;&lt;/div&gt;&lt;/h1&gt;" style="text;html=1;strokeColor=none;fillColor=none;spacing=5;spacingTop=-20;whiteSpace=wrap;overflow=hidden;rounded=0;" parent="1" vertex="1">
          <mxGeometry width="350" height="110" as="geometry" />
        </mxCell>
        <mxCell id="BK236hr4UTo6OThJQr9j-6" value="&lt;h1 style=&quot;font-size: 20px;&quot;&gt;&lt;font style=&quot;font-size: 20px;&quot;&gt;기차&lt;/font&gt;&lt;/h1&gt;&lt;h1 style=&quot;font-size: 11px;&quot;&gt;&lt;span style=&quot;font-weight: normal;&quot;&gt;&lt;font style=&quot;font-size: 11px;&quot;&gt;-열차 번호, 출발 시간, 도착 시간, 걸리는 시간, 기차 종류&lt;/font&gt;&lt;/span&gt;&lt;/h1&gt;&lt;h1 style=&quot;font-size: 11px;&quot;&gt;&lt;span style=&quot;font-weight: normal;&quot;&gt;&lt;font style=&quot;font-size: 11px;&quot;&gt;-비용,정차 역,남아있는 좌석&lt;/font&gt;&lt;/span&gt;&lt;/h1&gt;&lt;h1 style=&quot;&quot;&gt;&lt;font style=&quot;&quot;&gt;&lt;span style=&quot;background-color: initial;&quot;&gt;&lt;font style=&quot;font-size: 20px;&quot;&gt;예약 정보&lt;/font&gt;&lt;/span&gt;&lt;br&gt;&lt;/font&gt;&lt;/h1&gt;&lt;h1 style=&quot;font-size: 11px;&quot;&gt;&lt;span style=&quot;font-weight: normal;&quot;&gt;&lt;font style=&quot;font-size: 11px;&quot;&gt;-이름,좌석 번호,예약 번호,출발 역,도착 역&lt;/font&gt;&lt;/span&gt;&lt;/h1&gt;&lt;h1 style=&quot;font-size: 11px;&quot;&gt;&lt;span style=&quot;font-weight: normal;&quot;&gt;&lt;font style=&quot;font-size: 11px;&quot;&gt;-출발 시간,도착 시간&lt;/font&gt;&lt;/span&gt;&lt;/h1&gt;&lt;div&gt;&lt;br&gt;&lt;/div&gt;" style="text;html=1;strokeColor=none;fillColor=none;spacing=5;spacingTop=-20;whiteSpace=wrap;overflow=hidden;rounded=0;" parent="1" vertex="1">
          <mxGeometry x="10" y="700" width="300" height="180" as="geometry" />
        </mxCell>
        <mxCell id="PJ1LDkQ1CQzFSU2runUw-1" value="시작" style="rounded=1;whiteSpace=wrap;html=1;" parent="1" vertex="1">
          <mxGeometry x="400" y="110" width="170" height="50" as="geometry" />
        </mxCell>
        <mxCell id="PJ1LDkQ1CQzFSU2runUw-135" style="edgeStyle=orthogonalEdgeStyle;rounded=0;orthogonalLoop=1;jettySize=auto;html=1;exitX=0.5;exitY=1;exitDx=0;exitDy=0;entryX=0.553;entryY=0.033;entryDx=0;entryDy=0;entryPerimeter=0;" parent="1" source="PJ1LDkQ1CQzFSU2runUw-2" target="PJ1LDkQ1CQzFSU2runUw-5" edge="1">
          <mxGeometry relative="1" as="geometry" />
        </mxCell>
        <mxCell id="PJ1LDkQ1CQzFSU2runUw-2" value="출발역, 도착역,출발시간,인원" style="shape=parallelogram;perimeter=parallelogramPerimeter;whiteSpace=wrap;html=1;fixedSize=1;" parent="1" vertex="1">
          <mxGeometry x="385" y="200" width="200" height="50" as="geometry" />
        </mxCell>
        <mxCell id="PJ1LDkQ1CQzFSU2runUw-3" value="&lt;h1&gt;&lt;font style=&quot;font-size: 10px;&quot;&gt;둥근사각형은&amp;nbsp; 시작과 끝을 나타낸다&lt;/font&gt;&lt;/h1&gt;" style="text;html=1;strokeColor=none;fillColor=none;spacing=5;spacingTop=-20;whiteSpace=wrap;overflow=hidden;rounded=0;" parent="1" vertex="1">
          <mxGeometry x="620" y="105" width="190" height="60" as="geometry" />
        </mxCell>
        <mxCell id="PJ1LDkQ1CQzFSU2runUw-4" value="" style="endArrow=classic;html=1;rounded=0;" parent="1" edge="1">
          <mxGeometry width="50" height="50" relative="1" as="geometry">
            <mxPoint x="480" y="160" as="sourcePoint" />
            <mxPoint x="479.5" y="200" as="targetPoint" />
            <Array as="points" />
          </mxGeometry>
        </mxCell>
        <mxCell id="PJ1LDkQ1CQzFSU2runUw-141" style="edgeStyle=orthogonalEdgeStyle;rounded=0;orthogonalLoop=1;jettySize=auto;html=1;" parent="1" source="PJ1LDkQ1CQzFSU2runUw-7" target="PJ1LDkQ1CQzFSU2runUw-2" edge="1">
          <mxGeometry relative="1" as="geometry">
            <Array as="points">
              <mxPoint x="270" y="225" />
            </Array>
          </mxGeometry>
        </mxCell>
        <mxCell id="PJ1LDkQ1CQzFSU2runUw-7" value="&#39;모두입력하세요&#39;" style="shape=document;whiteSpace=wrap;html=1;boundedLbl=1;" parent="1" vertex="1">
          <mxGeometry x="190" y="310" width="140" height="60" as="geometry" />
        </mxCell>
        <mxCell id="PJ1LDkQ1CQzFSU2runUw-10" value="&lt;h1&gt;&lt;span style=&quot;font-size: 10px;&quot;&gt;No&lt;/span&gt;&lt;/h1&gt;" style="text;html=1;strokeColor=none;fillColor=none;spacing=5;spacingTop=-20;whiteSpace=wrap;overflow=hidden;rounded=0;" parent="1" vertex="1">
          <mxGeometry x="350" y="300" width="30" height="30" as="geometry" />
        </mxCell>
        <mxCell id="PJ1LDkQ1CQzFSU2runUw-143" style="edgeStyle=orthogonalEdgeStyle;rounded=0;orthogonalLoop=1;jettySize=auto;html=1;exitX=0.5;exitY=1;exitDx=0;exitDy=0;" parent="1" source="PJ1LDkQ1CQzFSU2runUw-11" target="PJ1LDkQ1CQzFSU2runUw-19" edge="1">
          <mxGeometry relative="1" as="geometry" />
        </mxCell>
        <mxCell id="PJ1LDkQ1CQzFSU2runUw-11" value="올바른 시간?" style="rhombus;whiteSpace=wrap;html=1;" parent="1" vertex="1">
          <mxGeometry x="380" y="400" width="190" height="60" as="geometry" />
        </mxCell>
        <mxCell id="PJ1LDkQ1CQzFSU2runUw-140" style="edgeStyle=orthogonalEdgeStyle;rounded=0;orthogonalLoop=1;jettySize=auto;html=1;" parent="1" source="PJ1LDkQ1CQzFSU2runUw-12" target="PJ1LDkQ1CQzFSU2runUw-2" edge="1">
          <mxGeometry relative="1" as="geometry">
            <Array as="points">
              <mxPoint x="160" y="430" />
              <mxPoint x="160" y="225" />
            </Array>
          </mxGeometry>
        </mxCell>
        <mxCell id="PJ1LDkQ1CQzFSU2runUw-12" value="&#39;잘못된 시간입니다.&#39;" style="shape=document;whiteSpace=wrap;html=1;boundedLbl=1;" parent="1" vertex="1">
          <mxGeometry x="190" y="400" width="140" height="60" as="geometry" />
        </mxCell>
        <mxCell id="PJ1LDkQ1CQzFSU2runUw-13" value="" style="endArrow=classic;html=1;rounded=0;exitX=0;exitY=0.5;exitDx=0;exitDy=0;" parent="1" source="PJ1LDkQ1CQzFSU2runUw-11" edge="1">
          <mxGeometry width="50" height="50" relative="1" as="geometry">
            <mxPoint x="340" y="430" as="sourcePoint" />
            <mxPoint x="330" y="429.5" as="targetPoint" />
          </mxGeometry>
        </mxCell>
        <mxCell id="PJ1LDkQ1CQzFSU2runUw-16" value="&lt;h1&gt;&lt;span style=&quot;font-size: 10px;&quot;&gt;No&lt;/span&gt;&lt;/h1&gt;" style="text;html=1;strokeColor=none;fillColor=none;spacing=5;spacingTop=-20;whiteSpace=wrap;overflow=hidden;rounded=0;" parent="1" vertex="1">
          <mxGeometry x="350" y="400" width="30" height="30" as="geometry" />
        </mxCell>
        <mxCell id="PJ1LDkQ1CQzFSU2runUw-17" value="&lt;h1&gt;&lt;span style=&quot;font-size: 10px;&quot;&gt;Yes&lt;/span&gt;&lt;/h1&gt;" style="text;html=1;strokeColor=none;fillColor=none;spacing=5;spacingTop=-20;whiteSpace=wrap;overflow=hidden;rounded=0;" parent="1" vertex="1">
          <mxGeometry x="480" y="350" width="30" height="30" as="geometry" />
        </mxCell>
        <mxCell id="PJ1LDkQ1CQzFSU2runUw-18" value="&lt;h1&gt;&lt;span style=&quot;font-size: 10px;&quot;&gt;Yes&lt;/span&gt;&lt;/h1&gt;" style="text;html=1;strokeColor=none;fillColor=none;spacing=5;spacingTop=-20;whiteSpace=wrap;overflow=hidden;rounded=0;" parent="1" vertex="1">
          <mxGeometry x="480" y="450" width="30" height="30" as="geometry" />
        </mxCell>
        <mxCell id="PJ1LDkQ1CQzFSU2runUw-144" style="edgeStyle=orthogonalEdgeStyle;rounded=0;orthogonalLoop=1;jettySize=auto;html=1;entryX=0.5;entryY=0;entryDx=0;entryDy=0;" parent="1" source="PJ1LDkQ1CQzFSU2runUw-19" target="PJ1LDkQ1CQzFSU2runUw-80" edge="1">
          <mxGeometry relative="1" as="geometry" />
        </mxCell>
        <mxCell id="PJ1LDkQ1CQzFSU2runUw-19" value="올바른 인원?" style="rhombus;whiteSpace=wrap;html=1;" parent="1" vertex="1">
          <mxGeometry x="380" y="510" width="190" height="60" as="geometry" />
        </mxCell>
        <mxCell id="PJ1LDkQ1CQzFSU2runUw-22" value="&lt;div style=&quot;&quot;&gt;&lt;span style=&quot;background-color: initial;&quot;&gt;&lt;font style=&quot;font-size: 10px;&quot;&gt;index; index &amp;lt; trains.length;index++&lt;/font&gt;&lt;/span&gt;&lt;/div&gt;" style="swimlane;whiteSpace=wrap;html=1;startSize=30;align=right;" parent="1" vertex="1">
          <mxGeometry x="300" y="790" width="420" height="1350" as="geometry" />
        </mxCell>
        <mxCell id="PJ1LDkQ1CQzFSU2runUw-149" style="edgeStyle=orthogonalEdgeStyle;rounded=0;orthogonalLoop=1;jettySize=auto;html=1;entryX=0.5;entryY=0;entryDx=0;entryDy=0;" parent="PJ1LDkQ1CQzFSU2runUw-22" source="PJ1LDkQ1CQzFSU2runUw-30" target="PJ1LDkQ1CQzFSU2runUw-46" edge="1">
          <mxGeometry relative="1" as="geometry">
            <Array as="points">
              <mxPoint x="205" y="120" />
              <mxPoint x="205" y="120" />
            </Array>
          </mxGeometry>
        </mxCell>
        <mxCell id="PJ1LDkQ1CQzFSU2runUw-30" value="해당 인덱스 요소의 정착역 리스트 가져오기" style="rounded=0;whiteSpace=wrap;html=1;" parent="PJ1LDkQ1CQzFSU2runUw-22" vertex="1">
          <mxGeometry x="90" y="50" width="240" height="60" as="geometry" />
        </mxCell>
        <mxCell id="PJ1LDkQ1CQzFSU2runUw-31" value="&lt;div style=&quot;&quot;&gt;&lt;span style=&quot;font-size: 10px; font-weight: normal; background-color: initial;&quot;&gt;stopStationIndex; stopStationIndesx &amp;lt; stopStations.length; stopStationIndex++&lt;/span&gt;&lt;/div&gt;" style="swimlane;whiteSpace=wrap;html=1;align=right;startSize=30;" parent="PJ1LDkQ1CQzFSU2runUw-22" vertex="1">
          <mxGeometry x="70" y="260" width="280" height="330" as="geometry" />
        </mxCell>
        <mxCell id="PJ1LDkQ1CQzFSU2runUw-124" style="edgeStyle=orthogonalEdgeStyle;rounded=0;orthogonalLoop=1;jettySize=auto;html=1;" parent="PJ1LDkQ1CQzFSU2runUw-31" source="PJ1LDkQ1CQzFSU2runUw-47" edge="1">
          <mxGeometry relative="1" as="geometry">
            <mxPoint x="25" y="40" as="targetPoint" />
          </mxGeometry>
        </mxCell>
        <mxCell id="PJ1LDkQ1CQzFSU2runUw-154" style="edgeStyle=orthogonalEdgeStyle;rounded=0;orthogonalLoop=1;jettySize=auto;html=1;entryX=0.5;entryY=0;entryDx=0;entryDy=0;" parent="PJ1LDkQ1CQzFSU2runUw-31" source="PJ1LDkQ1CQzFSU2runUw-47" target="PJ1LDkQ1CQzFSU2runUw-78" edge="1">
          <mxGeometry relative="1" as="geometry" />
        </mxCell>
        <mxCell id="PJ1LDkQ1CQzFSU2runUw-47" value="출발역과 요소가&lt;br&gt;같은지?" style="rhombus;whiteSpace=wrap;html=1;" parent="PJ1LDkQ1CQzFSU2runUw-31" vertex="1">
          <mxGeometry x="45" y="49" width="180" height="61" as="geometry" />
        </mxCell>
        <mxCell id="PJ1LDkQ1CQzFSU2runUw-48" value="동일 출발역의 인덱스 번호 기입" style="rounded=0;whiteSpace=wrap;html=1;" parent="PJ1LDkQ1CQzFSU2runUw-31" vertex="1">
          <mxGeometry x="40" y="250" width="190" height="60" as="geometry" />
        </mxCell>
        <mxCell id="PJ1LDkQ1CQzFSU2runUw-78" value="출발 시간 이전인지?" style="rhombus;whiteSpace=wrap;html=1;" parent="PJ1LDkQ1CQzFSU2runUw-31" vertex="1">
          <mxGeometry x="45" y="150" width="180" height="60" as="geometry" />
        </mxCell>
        <mxCell id="PJ1LDkQ1CQzFSU2runUw-89" value="" style="endArrow=classic;html=1;rounded=0;" parent="PJ1LDkQ1CQzFSU2runUw-31" edge="1">
          <mxGeometry width="50" height="50" relative="1" as="geometry">
            <mxPoint x="134.5" y="210" as="sourcePoint" />
            <mxPoint x="134.5" y="251" as="targetPoint" />
            <Array as="points" />
          </mxGeometry>
        </mxCell>
        <mxCell id="PJ1LDkQ1CQzFSU2runUw-110" value="&lt;h1&gt;&lt;span style=&quot;font-size: 10px;&quot;&gt;Yes&lt;/span&gt;&lt;/h1&gt;" style="text;html=1;strokeColor=none;fillColor=none;spacing=5;spacingTop=-20;whiteSpace=wrap;overflow=hidden;rounded=0;" parent="PJ1LDkQ1CQzFSU2runUw-31" vertex="1">
          <mxGeometry x="135" y="109" width="30" height="30" as="geometry" />
        </mxCell>
        <mxCell id="PJ1LDkQ1CQzFSU2runUw-112" value="&lt;h1&gt;&lt;span style=&quot;font-size: 10px;&quot;&gt;Yes&lt;/span&gt;&lt;/h1&gt;" style="text;html=1;strokeColor=none;fillColor=none;spacing=5;spacingTop=-20;whiteSpace=wrap;overflow=hidden;rounded=0;" parent="PJ1LDkQ1CQzFSU2runUw-31" vertex="1">
          <mxGeometry x="135" y="200" width="30" height="30" as="geometry" />
        </mxCell>
        <mxCell id="PJ1LDkQ1CQzFSU2runUw-113" value="&lt;h1&gt;&lt;span style=&quot;font-size: 10px;&quot;&gt;No&lt;/span&gt;&lt;/h1&gt;" style="text;html=1;strokeColor=none;fillColor=none;spacing=5;spacingTop=-20;whiteSpace=wrap;overflow=hidden;rounded=0;" parent="PJ1LDkQ1CQzFSU2runUw-31" vertex="1">
          <mxGeometry x="25" y="140" width="30" height="30" as="geometry" />
        </mxCell>
        <mxCell id="PJ1LDkQ1CQzFSU2runUw-125" value="&lt;h1&gt;&lt;span style=&quot;font-size: 10px;&quot;&gt;No&lt;/span&gt;&lt;/h1&gt;" style="text;html=1;strokeColor=none;fillColor=none;spacing=5;spacingTop=-20;whiteSpace=wrap;overflow=hidden;rounded=0;" parent="PJ1LDkQ1CQzFSU2runUw-31" vertex="1">
          <mxGeometry x="29" y="49" width="30" height="30" as="geometry" />
        </mxCell>
        <mxCell id="PJ1LDkQ1CQzFSU2runUw-148" style="edgeStyle=orthogonalEdgeStyle;rounded=0;orthogonalLoop=1;jettySize=auto;html=1;entryX=0.479;entryY=-0.006;entryDx=0;entryDy=0;entryPerimeter=0;" parent="PJ1LDkQ1CQzFSU2runUw-22" source="PJ1LDkQ1CQzFSU2runUw-46" target="PJ1LDkQ1CQzFSU2runUw-31" edge="1">
          <mxGeometry relative="1" as="geometry" />
        </mxCell>
        <mxCell id="PJ1LDkQ1CQzFSU2runUw-46" value="동일한 출발역의 인덱스 번호" style="rounded=0;whiteSpace=wrap;html=1;" parent="PJ1LDkQ1CQzFSU2runUw-22" vertex="1">
          <mxGeometry x="85" y="150" width="240" height="60" as="geometry" />
        </mxCell>
        <mxCell id="PJ1LDkQ1CQzFSU2runUw-130" style="edgeStyle=orthogonalEdgeStyle;rounded=0;orthogonalLoop=1;jettySize=auto;html=1;entryX=0.461;entryY=-0.009;entryDx=0;entryDy=0;entryPerimeter=0;" parent="PJ1LDkQ1CQzFSU2runUw-22" source="PJ1LDkQ1CQzFSU2runUw-51" target="PJ1LDkQ1CQzFSU2runUw-55" edge="1">
          <mxGeometry relative="1" as="geometry" />
        </mxCell>
        <mxCell id="PJ1LDkQ1CQzFSU2runUw-131" style="edgeStyle=orthogonalEdgeStyle;rounded=0;orthogonalLoop=1;jettySize=auto;html=1;" parent="PJ1LDkQ1CQzFSU2runUw-22" source="PJ1LDkQ1CQzFSU2runUw-51" edge="1">
          <mxGeometry relative="1" as="geometry">
            <mxPoint x="40" y="60" as="targetPoint" />
          </mxGeometry>
        </mxCell>
        <mxCell id="PJ1LDkQ1CQzFSU2runUw-51" value="동일한 출발역이&amp;nbsp;&lt;br&gt;저장됐는지?" style="rhombus;whiteSpace=wrap;html=1;" parent="PJ1LDkQ1CQzFSU2runUw-22" vertex="1">
          <mxGeometry x="125" y="640" width="180" height="60" as="geometry" />
        </mxCell>
        <mxCell id="PJ1LDkQ1CQzFSU2runUw-159" style="edgeStyle=orthogonalEdgeStyle;rounded=0;orthogonalLoop=1;jettySize=auto;html=1;entryX=0.605;entryY=-0.042;entryDx=0;entryDy=0;entryPerimeter=0;" parent="PJ1LDkQ1CQzFSU2runUw-22" source="PJ1LDkQ1CQzFSU2runUw-55" target="PJ1LDkQ1CQzFSU2runUw-77" edge="1">
          <mxGeometry relative="1" as="geometry" />
        </mxCell>
        <mxCell id="PJ1LDkQ1CQzFSU2runUw-55" value="&lt;div style=&quot;&quot;&gt;&lt;span style=&quot;font-size: 10px; font-weight: normal; background-color: initial;&quot;&gt;stopStationIndex; stopStationIndesx &amp;lt; stopStations.length; stopStationIndex++&lt;/span&gt;&lt;/div&gt;" style="swimlane;whiteSpace=wrap;html=1;align=right;startSize=30;" parent="PJ1LDkQ1CQzFSU2runUw-22" vertex="1">
          <mxGeometry x="85" y="760" width="280" height="410" as="geometry" />
        </mxCell>
        <mxCell id="PJ1LDkQ1CQzFSU2runUw-56" value="도착역과 요소가&lt;br&gt;같은지?" style="rhombus;whiteSpace=wrap;html=1;" parent="PJ1LDkQ1CQzFSU2runUw-55" vertex="1">
          <mxGeometry x="45" y="49" width="180" height="60" as="geometry" />
        </mxCell>
        <mxCell id="PJ1LDkQ1CQzFSU2runUw-59" value="" style="endArrow=classic;html=1;rounded=0;" parent="PJ1LDkQ1CQzFSU2runUw-55" edge="1">
          <mxGeometry width="50" height="50" relative="1" as="geometry">
            <mxPoint x="134.5" y="109" as="sourcePoint" />
            <mxPoint x="134.5" y="150" as="targetPoint" />
            <Array as="points" />
          </mxGeometry>
        </mxCell>
        <mxCell id="PJ1LDkQ1CQzFSU2runUw-128" style="edgeStyle=orthogonalEdgeStyle;rounded=0;orthogonalLoop=1;jettySize=auto;html=1;" parent="PJ1LDkQ1CQzFSU2runUw-55" source="PJ1LDkQ1CQzFSU2runUw-60" edge="1">
          <mxGeometry relative="1" as="geometry">
            <mxPoint x="130" y="400" as="targetPoint" />
            <Array as="points">
              <mxPoint x="30" y="180" />
              <mxPoint x="30" y="370" />
              <mxPoint x="130" y="370" />
            </Array>
          </mxGeometry>
        </mxCell>
        <mxCell id="PJ1LDkQ1CQzFSU2runUw-156" style="edgeStyle=orthogonalEdgeStyle;rounded=0;orthogonalLoop=1;jettySize=auto;html=1;entryX=0.557;entryY=-0.033;entryDx=0;entryDy=0;entryPerimeter=0;" parent="PJ1LDkQ1CQzFSU2runUw-55" source="PJ1LDkQ1CQzFSU2runUw-60" target="PJ1LDkQ1CQzFSU2runUw-61" edge="1">
          <mxGeometry relative="1" as="geometry" />
        </mxCell>
        <mxCell id="PJ1LDkQ1CQzFSU2runUw-60" value="도착역 인덱스가 출발역&lt;br&gt;인덱스보다 큰지?" style="rhombus;whiteSpace=wrap;html=1;" parent="PJ1LDkQ1CQzFSU2runUw-55" vertex="1">
          <mxGeometry x="45" y="150" width="195" height="60" as="geometry" />
        </mxCell>
        <mxCell id="PJ1LDkQ1CQzFSU2runUw-129" style="edgeStyle=orthogonalEdgeStyle;rounded=0;orthogonalLoop=1;jettySize=auto;html=1;" parent="PJ1LDkQ1CQzFSU2runUw-55" source="PJ1LDkQ1CQzFSU2runUw-61" edge="1">
          <mxGeometry relative="1" as="geometry">
            <mxPoint x="130" y="400" as="targetPoint" />
            <Array as="points">
              <mxPoint x="130" y="400" />
            </Array>
          </mxGeometry>
        </mxCell>
        <mxCell id="PJ1LDkQ1CQzFSU2runUw-61" value="가능한 열차 리스트에 &lt;br&gt;해당 열차 객체 추가" style="rounded=0;whiteSpace=wrap;html=1;" parent="PJ1LDkQ1CQzFSU2runUw-55" vertex="1">
          <mxGeometry x="65" y="260" width="140" height="60" as="geometry" />
        </mxCell>
        <mxCell id="PJ1LDkQ1CQzFSU2runUw-91" value="&lt;h1&gt;&lt;span style=&quot;font-size: 10px;&quot;&gt;Yes&lt;/span&gt;&lt;/h1&gt;" style="text;html=1;strokeColor=none;fillColor=none;spacing=5;spacingTop=-20;whiteSpace=wrap;overflow=hidden;rounded=0;" parent="PJ1LDkQ1CQzFSU2runUw-55" vertex="1">
          <mxGeometry x="135" y="109" width="30" height="30" as="geometry" />
        </mxCell>
        <mxCell id="PJ1LDkQ1CQzFSU2runUw-92" value="&lt;h1&gt;&lt;span style=&quot;font-size: 10px;&quot;&gt;Yes&lt;/span&gt;&lt;/h1&gt;" style="text;html=1;strokeColor=none;fillColor=none;spacing=5;spacingTop=-20;whiteSpace=wrap;overflow=hidden;rounded=0;" parent="PJ1LDkQ1CQzFSU2runUw-55" vertex="1">
          <mxGeometry x="145" y="200" width="30" height="30" as="geometry" />
        </mxCell>
        <mxCell id="PJ1LDkQ1CQzFSU2runUw-116" value="&lt;h1&gt;&lt;span style=&quot;font-size: 10px;&quot;&gt;No&lt;/span&gt;&lt;/h1&gt;" style="text;html=1;strokeColor=none;fillColor=none;spacing=5;spacingTop=-20;whiteSpace=wrap;overflow=hidden;rounded=0;" parent="PJ1LDkQ1CQzFSU2runUw-55" vertex="1">
          <mxGeometry x="25" y="150" width="30" height="30" as="geometry" />
        </mxCell>
        <mxCell id="PJ1LDkQ1CQzFSU2runUw-118" value="&lt;h1&gt;&lt;span style=&quot;font-size: 10px;&quot;&gt;No&lt;/span&gt;&lt;/h1&gt;" style="text;html=1;strokeColor=none;fillColor=none;spacing=5;spacingTop=-20;whiteSpace=wrap;overflow=hidden;rounded=0;" parent="PJ1LDkQ1CQzFSU2runUw-55" vertex="1">
          <mxGeometry x="25" y="49" width="30" height="30" as="geometry" />
        </mxCell>
        <mxCell id="PJ1LDkQ1CQzFSU2runUw-106" value="&lt;h1&gt;&lt;span style=&quot;font-size: 10px;&quot;&gt;Yes&lt;/span&gt;&lt;/h1&gt;" style="text;html=1;strokeColor=none;fillColor=none;spacing=5;spacingTop=-20;whiteSpace=wrap;overflow=hidden;rounded=0;" parent="PJ1LDkQ1CQzFSU2runUw-22" vertex="1">
          <mxGeometry x="190" y="700" width="30" height="30" as="geometry" />
        </mxCell>
        <mxCell id="PJ1LDkQ1CQzFSU2runUw-115" value="&lt;h1&gt;&lt;span style=&quot;font-size: 10px;&quot;&gt;No&lt;/span&gt;&lt;/h1&gt;" style="text;html=1;strokeColor=none;fillColor=none;spacing=5;spacingTop=-20;whiteSpace=wrap;overflow=hidden;rounded=0;" parent="PJ1LDkQ1CQzFSU2runUw-22" vertex="1">
          <mxGeometry x="70" y="630" width="30" height="30" as="geometry" />
        </mxCell>
        <mxCell id="PJ1LDkQ1CQzFSU2runUw-77" value="가능한 열차 리스트" style="shape=document;whiteSpace=wrap;html=1;boundedLbl=1;" parent="PJ1LDkQ1CQzFSU2runUw-22" vertex="1">
          <mxGeometry x="140" y="1270" width="140" height="60" as="geometry" />
        </mxCell>
        <mxCell id="PJ1LDkQ1CQzFSU2runUw-150" style="edgeStyle=orthogonalEdgeStyle;rounded=0;orthogonalLoop=1;jettySize=auto;html=1;entryX=0.456;entryY=0.05;entryDx=0;entryDy=0;entryPerimeter=0;" parent="PJ1LDkQ1CQzFSU2runUw-22" source="PJ1LDkQ1CQzFSU2runUw-48" target="PJ1LDkQ1CQzFSU2runUw-51" edge="1">
          <mxGeometry relative="1" as="geometry">
            <mxPoint x="215" y="630" as="targetPoint" />
            <Array as="points">
              <mxPoint x="210" y="640" />
              <mxPoint x="207" y="640" />
            </Array>
          </mxGeometry>
        </mxCell>
        <mxCell id="PJ1LDkQ1CQzFSU2runUw-153" style="edgeStyle=orthogonalEdgeStyle;rounded=0;orthogonalLoop=1;jettySize=auto;html=1;" parent="PJ1LDkQ1CQzFSU2runUw-22" source="PJ1LDkQ1CQzFSU2runUw-78" edge="1">
          <mxGeometry relative="1" as="geometry">
            <mxPoint x="215" y="640" as="targetPoint" />
            <Array as="points">
              <mxPoint x="100" y="440" />
              <mxPoint x="100" y="630" />
              <mxPoint x="210" y="630" />
              <mxPoint x="210" y="640" />
            </Array>
          </mxGeometry>
        </mxCell>
        <mxCell id="PJ1LDkQ1CQzFSU2runUw-142" style="edgeStyle=orthogonalEdgeStyle;rounded=0;orthogonalLoop=1;jettySize=auto;html=1;entryX=0.5;entryY=0;entryDx=0;entryDy=0;" parent="1" source="PJ1LDkQ1CQzFSU2runUw-5" target="PJ1LDkQ1CQzFSU2runUw-11" edge="1">
          <mxGeometry relative="1" as="geometry" />
        </mxCell>
        <mxCell id="rN_voGvL153HVdvRliYI-177" style="edgeStyle=orthogonalEdgeStyle;rounded=0;orthogonalLoop=1;jettySize=auto;html=1;exitX=0;exitY=0.5;exitDx=0;exitDy=0;" parent="1" source="PJ1LDkQ1CQzFSU2runUw-5" edge="1">
          <mxGeometry relative="1" as="geometry">
            <mxPoint x="330" y="330" as="targetPoint" />
            <Array as="points" />
          </mxGeometry>
        </mxCell>
        <mxCell id="PJ1LDkQ1CQzFSU2runUw-5" value="모두 입력?" style="rhombus;whiteSpace=wrap;html=1;" parent="1" vertex="1">
          <mxGeometry x="380" y="300" width="190" height="60" as="geometry" />
        </mxCell>
        <mxCell id="PJ1LDkQ1CQzFSU2runUw-139" style="edgeStyle=orthogonalEdgeStyle;rounded=0;orthogonalLoop=1;jettySize=auto;html=1;" parent="1" source="PJ1LDkQ1CQzFSU2runUw-24" target="PJ1LDkQ1CQzFSU2runUw-2" edge="1">
          <mxGeometry relative="1" as="geometry">
            <Array as="points">
              <mxPoint x="160" y="550" />
              <mxPoint x="160" y="225" />
            </Array>
          </mxGeometry>
        </mxCell>
        <mxCell id="PJ1LDkQ1CQzFSU2runUw-24" value="&#39;잘못된 인원입니다.&#39;" style="shape=document;whiteSpace=wrap;html=1;boundedLbl=1;" parent="1" vertex="1">
          <mxGeometry x="190" y="520" width="140" height="60" as="geometry" />
        </mxCell>
        <mxCell id="PJ1LDkQ1CQzFSU2runUw-26" value="&lt;h1&gt;&lt;span style=&quot;font-size: 10px;&quot;&gt;Yes&lt;/span&gt;&lt;/h1&gt;" style="text;html=1;strokeColor=none;fillColor=none;spacing=5;spacingTop=-20;whiteSpace=wrap;overflow=hidden;rounded=0;" parent="1" vertex="1">
          <mxGeometry x="480" y="570" width="30" height="30" as="geometry" />
        </mxCell>
        <mxCell id="PJ1LDkQ1CQzFSU2runUw-27" value="&lt;h1&gt;&lt;span style=&quot;font-size: 10px;&quot;&gt;No&lt;/span&gt;&lt;/h1&gt;" style="text;html=1;strokeColor=none;fillColor=none;spacing=5;spacingTop=-20;whiteSpace=wrap;overflow=hidden;rounded=0;" parent="1" vertex="1">
          <mxGeometry x="350" y="510" width="30" height="30" as="geometry" />
        </mxCell>
        <mxCell id="PJ1LDkQ1CQzFSU2runUw-28" value="" style="endArrow=classic;html=1;rounded=0;exitX=0;exitY=0.5;exitDx=0;exitDy=0;" parent="1" edge="1">
          <mxGeometry width="50" height="50" relative="1" as="geometry">
            <mxPoint x="380" y="540.5" as="sourcePoint" />
            <mxPoint x="330" y="540" as="targetPoint" />
          </mxGeometry>
        </mxCell>
        <mxCell id="PJ1LDkQ1CQzFSU2runUw-40" value="&lt;h1&gt;&lt;font style=&quot;font-size: 10px;&quot;&gt;평행 사변형은 입출력을 나타낸다.&lt;/font&gt;&lt;/h1&gt;" style="text;html=1;strokeColor=none;fillColor=none;spacing=5;spacingTop=-20;whiteSpace=wrap;overflow=hidden;rounded=0;" parent="1" vertex="1">
          <mxGeometry x="630" y="190" width="190" height="60" as="geometry" />
        </mxCell>
        <mxCell id="PJ1LDkQ1CQzFSU2runUw-41" value="&lt;h1&gt;&lt;font style=&quot;font-size: 10px;&quot;&gt;마름모는 조건문 검사할 때&amp;nbsp; 나타낸다.&lt;/font&gt;&lt;/h1&gt;&lt;div&gt;&lt;b&gt;if문 사용하고&amp;nbsp; ?&amp;nbsp; 를 붙인다.&lt;/b&gt;&lt;/div&gt;&lt;div&gt;&lt;br&gt;&lt;/div&gt;" style="text;html=1;strokeColor=none;fillColor=none;spacing=5;spacingTop=-20;whiteSpace=wrap;overflow=hidden;rounded=0;" parent="1" vertex="1">
          <mxGeometry x="620" y="290" width="190" height="70" as="geometry" />
        </mxCell>
        <mxCell id="PJ1LDkQ1CQzFSU2runUw-42" value="&lt;h1&gt;&lt;span style=&quot;font-weight: 400;&quot;&gt;&lt;font style=&quot;font-size: 11px;&quot;&gt;그냥 네모는 연산틀 작업이다.&amp;nbsp;&lt;/font&gt;&lt;/span&gt;&lt;/h1&gt;" style="text;html=1;strokeColor=none;fillColor=none;spacing=5;spacingTop=-20;whiteSpace=wrap;overflow=hidden;rounded=0;" parent="1" vertex="1">
          <mxGeometry x="620" y="700" width="190" height="40" as="geometry" />
        </mxCell>
        <mxCell id="PJ1LDkQ1CQzFSU2runUw-43" value="&lt;h1&gt;&lt;span style=&quot;font-weight: 400;&quot;&gt;&lt;font style=&quot;font-size: 11px;&quot;&gt;문서에 대한 출력&lt;/font&gt;&lt;/span&gt;&lt;/h1&gt;" style="text;html=1;strokeColor=none;fillColor=none;spacing=5;spacingTop=-20;whiteSpace=wrap;overflow=hidden;rounded=0;" parent="1" vertex="1">
          <mxGeometry x="40" y="310" width="100" height="40" as="geometry" />
        </mxCell>
        <mxCell id="PJ1LDkQ1CQzFSU2runUw-146" style="edgeStyle=orthogonalEdgeStyle;rounded=0;orthogonalLoop=1;jettySize=auto;html=1;entryX=0.417;entryY=-0.001;entryDx=0;entryDy=0;entryPerimeter=0;" parent="1" source="PJ1LDkQ1CQzFSU2runUw-45" target="PJ1LDkQ1CQzFSU2runUw-22" edge="1">
          <mxGeometry relative="1" as="geometry" />
        </mxCell>
        <mxCell id="PJ1LDkQ1CQzFSU2runUw-45" value="가능한 열차정보를 저장할 리스트 생성" style="rounded=0;whiteSpace=wrap;html=1;" parent="1" vertex="1">
          <mxGeometry x="355" y="700" width="240" height="60" as="geometry" />
        </mxCell>
        <mxCell id="PJ1LDkQ1CQzFSU2runUw-145" style="edgeStyle=orthogonalEdgeStyle;rounded=0;orthogonalLoop=1;jettySize=auto;html=1;exitX=0.5;exitY=1;exitDx=0;exitDy=0;entryX=0.5;entryY=0;entryDx=0;entryDy=0;" parent="1" source="PJ1LDkQ1CQzFSU2runUw-80" target="PJ1LDkQ1CQzFSU2runUw-45" edge="1">
          <mxGeometry relative="1" as="geometry" />
        </mxCell>
        <mxCell id="PJ1LDkQ1CQzFSU2runUw-80" value="같은 역?" style="rhombus;whiteSpace=wrap;html=1;" parent="1" vertex="1">
          <mxGeometry x="380" y="610" width="190" height="60" as="geometry" />
        </mxCell>
        <mxCell id="PJ1LDkQ1CQzFSU2runUw-138" style="edgeStyle=orthogonalEdgeStyle;rounded=0;orthogonalLoop=1;jettySize=auto;html=1;" parent="1" source="PJ1LDkQ1CQzFSU2runUw-81" target="PJ1LDkQ1CQzFSU2runUw-2" edge="1">
          <mxGeometry relative="1" as="geometry">
            <Array as="points">
              <mxPoint x="160" y="643" />
              <mxPoint x="160" y="225" />
            </Array>
          </mxGeometry>
        </mxCell>
        <mxCell id="PJ1LDkQ1CQzFSU2runUw-81" value="&#39;출발역과 도착역이 &lt;br&gt;같습니다.&#39;" style="shape=document;whiteSpace=wrap;html=1;boundedLbl=1;" parent="1" vertex="1">
          <mxGeometry x="190" y="615" width="140" height="55" as="geometry" />
        </mxCell>
        <mxCell id="PJ1LDkQ1CQzFSU2runUw-82" value="" style="endArrow=classic;html=1;rounded=0;exitX=0;exitY=0.5;exitDx=0;exitDy=0;" parent="1" edge="1">
          <mxGeometry width="50" height="50" relative="1" as="geometry">
            <mxPoint x="380" y="640.5" as="sourcePoint" />
            <mxPoint x="330" y="640" as="targetPoint" />
          </mxGeometry>
        </mxCell>
        <mxCell id="PJ1LDkQ1CQzFSU2runUw-84" value="&lt;h1&gt;&lt;span style=&quot;font-size: 10px;&quot;&gt;Yes&lt;/span&gt;&lt;/h1&gt;" style="text;html=1;strokeColor=none;fillColor=none;spacing=5;spacingTop=-20;whiteSpace=wrap;overflow=hidden;rounded=0;" parent="1" vertex="1">
          <mxGeometry x="350" y="610" width="30" height="30" as="geometry" />
        </mxCell>
        <mxCell id="PJ1LDkQ1CQzFSU2runUw-127" style="edgeStyle=orthogonalEdgeStyle;rounded=0;orthogonalLoop=1;jettySize=auto;html=1;" parent="1" source="PJ1LDkQ1CQzFSU2runUw-56" edge="1">
          <mxGeometry relative="1" as="geometry">
            <mxPoint x="400" y="1610" as="targetPoint" />
            <Array as="points">
              <mxPoint x="400" y="1629" />
            </Array>
          </mxGeometry>
        </mxCell>
        <mxCell id="PJ1LDkQ1CQzFSU2runUw-157" value="&lt;h1&gt;&lt;font style=&quot;font-size: 15px;&quot;&gt;다이어그램을 실제로 사용할 때는 한글이 아닌 코드를&amp;nbsp; 사용한다.&lt;/font&gt;&lt;/h1&gt;" style="text;html=1;strokeColor=none;fillColor=none;spacing=5;spacingTop=-20;whiteSpace=wrap;overflow=hidden;rounded=0;" parent="1" vertex="1">
          <mxGeometry x="30" y="1740" width="240" height="70" as="geometry" />
        </mxCell>
        <mxCell id="rN_voGvL153HVdvRliYI-1" value="&lt;h1 style=&quot;&quot;&gt;&lt;div style=&quot;border-color: var(--border-color);&quot;&gt;&lt;font style=&quot;font-size: 20px;&quot;&gt;기차 예약&lt;/font&gt;&lt;/div&gt;&lt;div style=&quot;font-size: 13px; border-color: var(--border-color);&quot;&gt;&lt;br&gt;&lt;/div&gt;&lt;div style=&quot;font-size: 13px; border-color: var(--border-color); font-weight: 400;&quot;&gt;&lt;span style=&quot;border-color: var(--border-color); background-color: initial;&quot;&gt;2.해당 열차 리스트 중 열차와 좌석 번호를&amp;nbsp; 선택하면&amp;nbsp;&lt;/span&gt;&lt;/div&gt;&lt;div style=&quot;font-size: 13px; border-color: var(--border-color); font-weight: 400;&quot;&gt;&lt;span style=&quot;border-color: var(--border-color); background-color: initial;&quot;&gt;&amp;nbsp; &amp;nbsp;예약할 수 있음, 예약이 성공하면 예약 정보를 반환&lt;/span&gt;&lt;/div&gt;&lt;/h1&gt;" style="text;html=1;strokeColor=none;fillColor=none;spacing=5;spacingTop=-20;whiteSpace=wrap;overflow=hidden;rounded=0;" parent="1" vertex="1">
          <mxGeometry x="760" width="340" height="100" as="geometry" />
        </mxCell>
        <mxCell id="rN_voGvL153HVdvRliYI-7" style="edgeStyle=orthogonalEdgeStyle;rounded=0;orthogonalLoop=1;jettySize=auto;html=1;entryX=0.5;entryY=0;entryDx=0;entryDy=0;" parent="1" source="rN_voGvL153HVdvRliYI-2" target="rN_voGvL153HVdvRliYI-3" edge="1">
          <mxGeometry relative="1" as="geometry">
            <Array as="points">
              <mxPoint x="1200" y="150" />
              <mxPoint x="1200" y="150" />
            </Array>
          </mxGeometry>
        </mxCell>
        <mxCell id="rN_voGvL153HVdvRliYI-2" value="시작" style="rounded=1;whiteSpace=wrap;html=1;" parent="1" vertex="1">
          <mxGeometry x="1120" y="80" width="170" height="50" as="geometry" />
        </mxCell>
        <mxCell id="rN_voGvL153HVdvRliYI-30" style="edgeStyle=orthogonalEdgeStyle;rounded=0;orthogonalLoop=1;jettySize=auto;html=1;entryX=0.5;entryY=0;entryDx=0;entryDy=0;" parent="1" source="rN_voGvL153HVdvRliYI-3" target="rN_voGvL153HVdvRliYI-29" edge="1">
          <mxGeometry relative="1" as="geometry" />
        </mxCell>
        <mxCell id="rN_voGvL153HVdvRliYI-3" value="열차 번호" style="shape=parallelogram;perimeter=parallelogramPerimeter;whiteSpace=wrap;html=1;fixedSize=1;" parent="1" vertex="1">
          <mxGeometry x="1110" y="180" width="180" height="45" as="geometry" />
        </mxCell>
        <mxCell id="rN_voGvL153HVdvRliYI-49" style="edgeStyle=orthogonalEdgeStyle;rounded=0;orthogonalLoop=1;jettySize=auto;html=1;entryX=0.5;entryY=0;entryDx=0;entryDy=0;" parent="1" source="rN_voGvL153HVdvRliYI-5" target="rN_voGvL153HVdvRliYI-48" edge="1">
          <mxGeometry relative="1" as="geometry" />
        </mxCell>
        <mxCell id="rN_voGvL153HVdvRliYI-5" value="&lt;font style=&quot;font-size: 10px;&quot;&gt;count; count &amp;lt; nemberOfPepole;couny++;&lt;/font&gt;" style="swimlane;whiteSpace=wrap;html=1;startSize=40;align=right;" parent="1" vertex="1">
          <mxGeometry x="970" y="480" width="470" height="420" as="geometry" />
        </mxCell>
        <mxCell id="rN_voGvL153HVdvRliYI-40" style="edgeStyle=orthogonalEdgeStyle;rounded=0;orthogonalLoop=1;jettySize=auto;html=1;entryX=0.5;entryY=0;entryDx=0;entryDy=0;" parent="rN_voGvL153HVdvRliYI-5" source="rN_voGvL153HVdvRliYI-9" target="rN_voGvL153HVdvRliYI-14" edge="1">
          <mxGeometry relative="1" as="geometry" />
        </mxCell>
        <mxCell id="rN_voGvL153HVdvRliYI-9" value="좌석" style="shape=parallelogram;perimeter=parallelogramPerimeter;whiteSpace=wrap;html=1;fixedSize=1;" parent="rN_voGvL153HVdvRliYI-5" vertex="1">
          <mxGeometry x="230" y="80" width="120" height="60" as="geometry" />
        </mxCell>
        <mxCell id="rN_voGvL153HVdvRliYI-10" value="입력 받은 좌석을 &lt;br&gt;리스트에 저장" style="rounded=0;whiteSpace=wrap;html=1;" parent="rN_voGvL153HVdvRliYI-5" vertex="1">
          <mxGeometry x="230" y="300" width="120" height="60" as="geometry" />
        </mxCell>
        <mxCell id="rN_voGvL153HVdvRliYI-41" style="edgeStyle=orthogonalEdgeStyle;rounded=0;orthogonalLoop=1;jettySize=auto;html=1;entryX=0.5;entryY=0;entryDx=0;entryDy=0;" parent="rN_voGvL153HVdvRliYI-5" source="rN_voGvL153HVdvRliYI-14" target="rN_voGvL153HVdvRliYI-10" edge="1">
          <mxGeometry relative="1" as="geometry" />
        </mxCell>
        <mxCell id="rN_voGvL153HVdvRliYI-46" style="edgeStyle=orthogonalEdgeStyle;rounded=0;orthogonalLoop=1;jettySize=auto;html=1;entryX=1;entryY=0.5;entryDx=0;entryDy=0;" parent="rN_voGvL153HVdvRliYI-5" source="rN_voGvL153HVdvRliYI-14" target="rN_voGvL153HVdvRliYI-43" edge="1">
          <mxGeometry relative="1" as="geometry" />
        </mxCell>
        <mxCell id="rN_voGvL153HVdvRliYI-14" value="빈값이 아닌지?" style="rhombus;whiteSpace=wrap;html=1;" parent="rN_voGvL153HVdvRliYI-5" vertex="1">
          <mxGeometry x="210" y="180" width="160" height="60" as="geometry" />
        </mxCell>
        <mxCell id="rN_voGvL153HVdvRliYI-45" style="edgeStyle=orthogonalEdgeStyle;rounded=0;orthogonalLoop=1;jettySize=auto;html=1;" parent="rN_voGvL153HVdvRliYI-5" source="rN_voGvL153HVdvRliYI-43" target="rN_voGvL153HVdvRliYI-9" edge="1">
          <mxGeometry relative="1" as="geometry">
            <Array as="points">
              <mxPoint x="90" y="100" />
            </Array>
          </mxGeometry>
        </mxCell>
        <mxCell id="rN_voGvL153HVdvRliYI-43" value="좌석을 입력하세요" style="shape=document;whiteSpace=wrap;html=1;boundedLbl=1;size=0.4;" parent="rN_voGvL153HVdvRliYI-5" vertex="1">
          <mxGeometry x="20" y="185" width="140" height="50" as="geometry" />
        </mxCell>
        <mxCell id="rN_voGvL153HVdvRliYI-126" value="&lt;h1&gt;&lt;span style=&quot;font-size: 10px;&quot;&gt;Yes&lt;/span&gt;&lt;/h1&gt;" style="text;html=1;strokeColor=none;fillColor=none;spacing=5;spacingTop=-20;whiteSpace=wrap;overflow=hidden;rounded=0;" parent="rN_voGvL153HVdvRliYI-5" vertex="1">
          <mxGeometry x="290" y="130" width="30" height="30" as="geometry" />
        </mxCell>
        <mxCell id="rN_voGvL153HVdvRliYI-168" value="&lt;h1&gt;&lt;span style=&quot;font-size: 10px;&quot;&gt;Yes&lt;/span&gt;&lt;/h1&gt;" style="text;html=1;strokeColor=none;fillColor=none;spacing=5;spacingTop=-20;whiteSpace=wrap;overflow=hidden;rounded=0;" parent="rN_voGvL153HVdvRliYI-5" vertex="1">
          <mxGeometry x="290" y="250" width="30" height="30" as="geometry" />
        </mxCell>
        <mxCell id="rN_voGvL153HVdvRliYI-169" value="&lt;h1&gt;&lt;span style=&quot;font-size: 10px;&quot;&gt;No&lt;/span&gt;&lt;/h1&gt;" style="text;html=1;strokeColor=none;fillColor=none;spacing=5;spacingTop=-20;whiteSpace=wrap;overflow=hidden;rounded=0;" parent="rN_voGvL153HVdvRliYI-5" vertex="1">
          <mxGeometry x="180" y="170" width="30" height="30" as="geometry" />
        </mxCell>
        <mxCell id="rN_voGvL153HVdvRliYI-124" style="edgeStyle=orthogonalEdgeStyle;rounded=0;orthogonalLoop=1;jettySize=auto;html=1;entryX=0.487;entryY=-0.005;entryDx=0;entryDy=0;entryPerimeter=0;" parent="1" source="rN_voGvL153HVdvRliYI-6" target="rN_voGvL153HVdvRliYI-5" edge="1">
          <mxGeometry relative="1" as="geometry">
            <Array as="points">
              <mxPoint x="1199" y="440" />
              <mxPoint x="1199" y="440" />
            </Array>
          </mxGeometry>
        </mxCell>
        <mxCell id="rN_voGvL153HVdvRliYI-6" value="입력 받을 좌석 리스트 생성" style="rounded=0;whiteSpace=wrap;html=1;" parent="1" vertex="1">
          <mxGeometry x="1120" y="360" width="160" height="60" as="geometry" />
        </mxCell>
        <mxCell id="rN_voGvL153HVdvRliYI-31" style="edgeStyle=orthogonalEdgeStyle;rounded=0;orthogonalLoop=1;jettySize=auto;html=1;entryX=0.5;entryY=0;entryDx=0;entryDy=0;" parent="1" source="rN_voGvL153HVdvRliYI-29" target="rN_voGvL153HVdvRliYI-6" edge="1">
          <mxGeometry relative="1" as="geometry" />
        </mxCell>
        <mxCell id="rN_voGvL153HVdvRliYI-37" style="edgeStyle=orthogonalEdgeStyle;rounded=0;orthogonalLoop=1;jettySize=auto;html=1;entryX=0.443;entryY=0.9;entryDx=0;entryDy=0;entryPerimeter=0;" parent="1" source="rN_voGvL153HVdvRliYI-29" target="rN_voGvL153HVdvRliYI-36" edge="1">
          <mxGeometry relative="1" as="geometry">
            <Array as="points">
              <mxPoint x="952" y="295" />
            </Array>
          </mxGeometry>
        </mxCell>
        <mxCell id="rN_voGvL153HVdvRliYI-29" value="빈값이 아닌지?" style="rhombus;whiteSpace=wrap;html=1;" parent="1" vertex="1">
          <mxGeometry x="1120" y="270" width="160" height="50" as="geometry" />
        </mxCell>
        <mxCell id="rN_voGvL153HVdvRliYI-35" value="&lt;h1&gt;&lt;span style=&quot;font-size: 10px;&quot;&gt;NO&lt;/span&gt;&lt;/h1&gt;" style="text;html=1;strokeColor=none;fillColor=none;spacing=5;spacingTop=-20;whiteSpace=wrap;overflow=hidden;rounded=0;" parent="1" vertex="1">
          <mxGeometry x="1080" y="260" width="30" height="30" as="geometry" />
        </mxCell>
        <mxCell id="rN_voGvL153HVdvRliYI-38" style="edgeStyle=orthogonalEdgeStyle;rounded=0;orthogonalLoop=1;jettySize=auto;html=1;" parent="1" source="rN_voGvL153HVdvRliYI-36" target="rN_voGvL153HVdvRliYI-3" edge="1">
          <mxGeometry relative="1" as="geometry">
            <Array as="points">
              <mxPoint x="960" y="203" />
            </Array>
          </mxGeometry>
        </mxCell>
        <mxCell id="rN_voGvL153HVdvRliYI-36" value="열차 번호를 입력하세요" style="shape=document;whiteSpace=wrap;html=1;boundedLbl=1;" parent="1" vertex="1">
          <mxGeometry x="890" y="230" width="140" height="50" as="geometry" />
        </mxCell>
        <mxCell id="rN_voGvL153HVdvRliYI-47" value="&lt;font style=&quot;font-size: 10px;&quot;&gt;index; index &amp;lt; trains.length; index++&lt;/font&gt;" style="swimlane;whiteSpace=wrap;html=1;align=right;startSize=40;" parent="1" vertex="1">
          <mxGeometry x="1010" y="1040" width="390" height="380" as="geometry" />
        </mxCell>
        <mxCell id="rN_voGvL153HVdvRliYI-56" style="edgeStyle=orthogonalEdgeStyle;rounded=0;orthogonalLoop=1;jettySize=auto;html=1;entryX=0.5;entryY=0;entryDx=0;entryDy=0;" parent="rN_voGvL153HVdvRliYI-47" source="rN_voGvL153HVdvRliYI-51" target="rN_voGvL153HVdvRliYI-52" edge="1">
          <mxGeometry relative="1" as="geometry" />
        </mxCell>
        <mxCell id="rN_voGvL153HVdvRliYI-51" value="해당 인덱스의 열차 정보 가져오기" style="rounded=0;whiteSpace=wrap;html=1;" parent="rN_voGvL153HVdvRliYI-47" vertex="1">
          <mxGeometry x="102.5" y="64.5" width="185" height="50" as="geometry" />
        </mxCell>
        <mxCell id="rN_voGvL153HVdvRliYI-60" style="edgeStyle=orthogonalEdgeStyle;rounded=0;orthogonalLoop=1;jettySize=auto;html=1;" parent="rN_voGvL153HVdvRliYI-47" source="rN_voGvL153HVdvRliYI-52" edge="1">
          <mxGeometry relative="1" as="geometry">
            <mxPoint x="50" y="60" as="targetPoint" />
          </mxGeometry>
        </mxCell>
        <mxCell id="rN_voGvL153HVdvRliYI-134" style="edgeStyle=orthogonalEdgeStyle;rounded=0;orthogonalLoop=1;jettySize=auto;html=1;entryX=0.5;entryY=0;entryDx=0;entryDy=0;" parent="rN_voGvL153HVdvRliYI-47" source="rN_voGvL153HVdvRliYI-52" target="rN_voGvL153HVdvRliYI-53" edge="1">
          <mxGeometry relative="1" as="geometry" />
        </mxCell>
        <mxCell id="rN_voGvL153HVdvRliYI-52" value="입력한 열차번호와 요소의&lt;br&gt;열차번호가 같은지?" style="rhombus;whiteSpace=wrap;html=1;" parent="rN_voGvL153HVdvRliYI-47" vertex="1">
          <mxGeometry x="105" y="170" width="180" height="70" as="geometry" />
        </mxCell>
        <mxCell id="rN_voGvL153HVdvRliYI-53" value="존재하는 열차 변수에&amp;nbsp;&lt;br&gt;해당 요소 저장" style="rounded=0;whiteSpace=wrap;html=1;" parent="rN_voGvL153HVdvRliYI-47" vertex="1">
          <mxGeometry x="130" y="280" width="130" height="60" as="geometry" />
        </mxCell>
        <mxCell id="rN_voGvL153HVdvRliYI-137" value="&lt;h1&gt;&lt;span style=&quot;font-size: 10px;&quot;&gt;Yes&lt;/span&gt;&lt;/h1&gt;" style="text;html=1;strokeColor=none;fillColor=none;spacing=5;spacingTop=-20;whiteSpace=wrap;overflow=hidden;rounded=0;" parent="rN_voGvL153HVdvRliYI-47" vertex="1">
          <mxGeometry x="200" y="230" width="30" height="30" as="geometry" />
        </mxCell>
        <mxCell id="rN_voGvL153HVdvRliYI-166" value="&lt;h1&gt;&lt;span style=&quot;font-size: 10px;&quot;&gt;No&lt;/span&gt;&lt;/h1&gt;" style="text;html=1;strokeColor=none;fillColor=none;spacing=5;spacingTop=-20;whiteSpace=wrap;overflow=hidden;rounded=0;" parent="rN_voGvL153HVdvRliYI-47" vertex="1">
          <mxGeometry x="72.5" y="170" width="30" height="30" as="geometry" />
        </mxCell>
        <mxCell id="rN_voGvL153HVdvRliYI-50" style="edgeStyle=orthogonalEdgeStyle;rounded=0;orthogonalLoop=1;jettySize=auto;html=1;entryX=0.5;entryY=0;entryDx=0;entryDy=0;" parent="1" source="rN_voGvL153HVdvRliYI-48" target="rN_voGvL153HVdvRliYI-47" edge="1">
          <mxGeometry relative="1" as="geometry" />
        </mxCell>
        <mxCell id="rN_voGvL153HVdvRliYI-48" value="존재하는 열차&lt;br&gt;&amp;nbsp;변수" style="rounded=0;whiteSpace=wrap;html=1;" parent="1" vertex="1">
          <mxGeometry x="1130" y="960" width="150" height="40" as="geometry" />
        </mxCell>
        <mxCell id="rN_voGvL153HVdvRliYI-87" style="edgeStyle=orthogonalEdgeStyle;rounded=0;orthogonalLoop=1;jettySize=auto;html=1;entryX=0.464;entryY=-0.033;entryDx=0;entryDy=0;entryPerimeter=0;" parent="1" source="rN_voGvL153HVdvRliYI-61" target="rN_voGvL153HVdvRliYI-86" edge="1">
          <mxGeometry relative="1" as="geometry" />
        </mxCell>
        <mxCell id="rN_voGvL153HVdvRliYI-122" style="edgeStyle=orthogonalEdgeStyle;rounded=0;orthogonalLoop=1;jettySize=auto;html=1;entryX=0;entryY=0.75;entryDx=0;entryDy=0;" parent="1" source="rN_voGvL153HVdvRliYI-61" target="rN_voGvL153HVdvRliYI-3" edge="1">
          <mxGeometry relative="1" as="geometry">
            <mxPoint x="1090" y="213" as="targetPoint" />
            <Array as="points">
              <mxPoint x="880" y="1510" />
              <mxPoint x="880" y="203" />
              <mxPoint x="1115" y="203" />
            </Array>
          </mxGeometry>
        </mxCell>
        <mxCell id="rN_voGvL153HVdvRliYI-61" value="열차 변수가 &lt;br&gt;null이&amp;nbsp;아닌지?" style="rhombus;whiteSpace=wrap;html=1;" parent="1" vertex="1">
          <mxGeometry x="1115" y="1480" width="180" height="60" as="geometry" />
        </mxCell>
        <mxCell id="rN_voGvL153HVdvRliYI-66" style="edgeStyle=orthogonalEdgeStyle;rounded=0;orthogonalLoop=1;jettySize=auto;html=1;entryX=0.5;entryY=0;entryDx=0;entryDy=0;" parent="1" source="rN_voGvL153HVdvRliYI-53" target="rN_voGvL153HVdvRliYI-61" edge="1">
          <mxGeometry relative="1" as="geometry" />
        </mxCell>
        <mxCell id="rN_voGvL153HVdvRliYI-101" style="edgeStyle=orthogonalEdgeStyle;rounded=0;orthogonalLoop=1;jettySize=auto;html=1;entryX=0.5;entryY=0;entryDx=0;entryDy=0;" parent="1" source="rN_voGvL153HVdvRliYI-67" target="rN_voGvL153HVdvRliYI-97" edge="1">
          <mxGeometry relative="1" as="geometry" />
        </mxCell>
        <mxCell id="rN_voGvL153HVdvRliYI-67" value="&lt;font style=&quot;font-size: 10px;&quot;&gt;count; count &amp;lt; existTrain.seats.length; count++&lt;/font&gt;" style="swimlane;whiteSpace=wrap;html=1;align=right;" parent="1" vertex="1">
          <mxGeometry x="960" y="1720" width="527.5" height="610" as="geometry" />
        </mxCell>
        <mxCell id="rN_voGvL153HVdvRliYI-71" value="&lt;font style=&quot;font-size: 11px;&quot;&gt;해당 인덱스의 좌석 정보 가져오기&lt;/font&gt;" style="rounded=0;whiteSpace=wrap;html=1;" parent="rN_voGvL153HVdvRliYI-67" vertex="1">
          <mxGeometry x="170" y="59" width="169" height="60" as="geometry" />
        </mxCell>
        <mxCell id="rN_voGvL153HVdvRliYI-72" value="&lt;font style=&quot;font-size: 10px;&quot;&gt;subCount; subCount &amp;lt; inputSeatLis; subCount++&lt;/font&gt;" style="swimlane;whiteSpace=wrap;html=1;align=right;" parent="rN_voGvL153HVdvRliYI-67" vertex="1">
          <mxGeometry x="70" y="160" width="410" height="380" as="geometry" />
        </mxCell>
        <mxCell id="rN_voGvL153HVdvRliYI-95" style="edgeStyle=orthogonalEdgeStyle;rounded=0;orthogonalLoop=1;jettySize=auto;html=1;entryX=0.5;entryY=0;entryDx=0;entryDy=0;" parent="rN_voGvL153HVdvRliYI-72" source="rN_voGvL153HVdvRliYI-73" target="rN_voGvL153HVdvRliYI-76" edge="1">
          <mxGeometry relative="1" as="geometry" />
        </mxCell>
        <mxCell id="rN_voGvL153HVdvRliYI-96" style="edgeStyle=orthogonalEdgeStyle;rounded=0;orthogonalLoop=1;jettySize=auto;html=1;" parent="rN_voGvL153HVdvRliYI-72" source="rN_voGvL153HVdvRliYI-73" edge="1">
          <mxGeometry relative="1" as="geometry">
            <mxPoint x="330" y="40" as="targetPoint" />
          </mxGeometry>
        </mxCell>
        <mxCell id="rN_voGvL153HVdvRliYI-73" value="입력한 좌석 번호와&lt;br&gt;해당 요소의 좌석 번호가 같은지?" style="rhombus;whiteSpace=wrap;html=1;" parent="rN_voGvL153HVdvRliYI-72" vertex="1">
          <mxGeometry x="60" y="41" width="180" height="69" as="geometry" />
        </mxCell>
        <mxCell id="rN_voGvL153HVdvRliYI-92" style="edgeStyle=orthogonalEdgeStyle;rounded=0;orthogonalLoop=1;jettySize=auto;html=1;entryX=0.5;entryY=0;entryDx=0;entryDy=0;" parent="rN_voGvL153HVdvRliYI-72" source="rN_voGvL153HVdvRliYI-76" target="rN_voGvL153HVdvRliYI-77" edge="1">
          <mxGeometry relative="1" as="geometry" />
        </mxCell>
        <mxCell id="rN_voGvL153HVdvRliYI-93" style="edgeStyle=orthogonalEdgeStyle;rounded=0;orthogonalLoop=1;jettySize=auto;html=1;entryX=0.5;entryY=0;entryDx=0;entryDy=0;" parent="rN_voGvL153HVdvRliYI-72" source="rN_voGvL153HVdvRliYI-76" target="rN_voGvL153HVdvRliYI-90" edge="1">
          <mxGeometry relative="1" as="geometry" />
        </mxCell>
        <mxCell id="rN_voGvL153HVdvRliYI-76" value="해당 요소의 좌석 번호가&lt;br&gt;사용 중이 아닌지?" style="rhombus;whiteSpace=wrap;html=1;" parent="rN_voGvL153HVdvRliYI-72" vertex="1">
          <mxGeometry x="60" y="145.5" width="180" height="69" as="geometry" />
        </mxCell>
        <mxCell id="rN_voGvL153HVdvRliYI-77" value="&lt;font style=&quot;font-size: 11px;&quot;&gt;해당 요소의 좌석 번호를 사용 중으로 변경&lt;/font&gt;" style="rounded=0;whiteSpace=wrap;html=1;" parent="rN_voGvL153HVdvRliYI-72" vertex="1">
          <mxGeometry x="65.5" y="250" width="169" height="60" as="geometry" />
        </mxCell>
        <mxCell id="rN_voGvL153HVdvRliYI-91" style="edgeStyle=orthogonalEdgeStyle;rounded=0;orthogonalLoop=1;jettySize=auto;html=1;" parent="rN_voGvL153HVdvRliYI-72" source="rN_voGvL153HVdvRliYI-90" edge="1">
          <mxGeometry relative="1" as="geometry">
            <mxPoint x="330" y="400" as="targetPoint" />
          </mxGeometry>
        </mxCell>
        <mxCell id="rN_voGvL153HVdvRliYI-90" value="좌석 지정 상태&amp;nbsp;값 false" style="rounded=0;whiteSpace=wrap;html=1;" parent="rN_voGvL153HVdvRliYI-72" vertex="1">
          <mxGeometry x="270" y="201" width="120" height="49" as="geometry" />
        </mxCell>
        <mxCell id="rN_voGvL153HVdvRliYI-148" value="&lt;h1&gt;&lt;span style=&quot;font-size: 10px;&quot;&gt;Yes&lt;/span&gt;&lt;/h1&gt;" style="text;html=1;strokeColor=none;fillColor=none;spacing=5;spacingTop=-20;whiteSpace=wrap;overflow=hidden;rounded=0;" parent="rN_voGvL153HVdvRliYI-72" vertex="1">
          <mxGeometry x="160" y="110" width="30" height="30" as="geometry" />
        </mxCell>
        <mxCell id="rN_voGvL153HVdvRliYI-160" value="&lt;h1&gt;&lt;span style=&quot;font-size: 10px;&quot;&gt;Yes&lt;/span&gt;&lt;/h1&gt;" style="text;html=1;strokeColor=none;fillColor=none;spacing=5;spacingTop=-20;whiteSpace=wrap;overflow=hidden;rounded=0;" parent="rN_voGvL153HVdvRliYI-72" vertex="1">
          <mxGeometry x="150" y="201" width="30" height="30" as="geometry" />
        </mxCell>
        <mxCell id="rN_voGvL153HVdvRliYI-161" value="&lt;h1&gt;&lt;span style=&quot;font-size: 10px;&quot;&gt;No&lt;/span&gt;&lt;/h1&gt;" style="text;html=1;strokeColor=none;fillColor=none;spacing=5;spacingTop=-20;whiteSpace=wrap;overflow=hidden;rounded=0;" parent="rN_voGvL153HVdvRliYI-72" vertex="1">
          <mxGeometry x="270" y="41" width="30" height="30" as="geometry" />
        </mxCell>
        <mxCell id="rN_voGvL153HVdvRliYI-162" value="&lt;h1&gt;&lt;span style=&quot;font-size: 10px;&quot;&gt;No&lt;/span&gt;&lt;/h1&gt;" style="text;html=1;strokeColor=none;fillColor=none;spacing=5;spacingTop=-20;whiteSpace=wrap;overflow=hidden;rounded=0;" parent="rN_voGvL153HVdvRliYI-72" vertex="1">
          <mxGeometry x="270" y="145.5" width="30" height="30" as="geometry" />
        </mxCell>
        <mxCell id="rN_voGvL153HVdvRliYI-135" style="edgeStyle=orthogonalEdgeStyle;rounded=0;orthogonalLoop=1;jettySize=auto;html=1;entryX=0.476;entryY=-0.003;entryDx=0;entryDy=0;entryPerimeter=0;" parent="1" source="rN_voGvL153HVdvRliYI-86" target="rN_voGvL153HVdvRliYI-67" edge="1">
          <mxGeometry relative="1" as="geometry" />
        </mxCell>
        <mxCell id="rN_voGvL153HVdvRliYI-86" value="&lt;font style=&quot;font-size: 11px;&quot;&gt;좌석 지정 상태&lt;/font&gt;" style="rounded=0;whiteSpace=wrap;html=1;" parent="1" vertex="1">
          <mxGeometry x="1126" y="1600" width="169" height="60" as="geometry" />
        </mxCell>
        <mxCell id="rN_voGvL153HVdvRliYI-99" style="edgeStyle=orthogonalEdgeStyle;rounded=0;orthogonalLoop=1;jettySize=auto;html=1;" parent="1" source="rN_voGvL153HVdvRliYI-97" target="rN_voGvL153HVdvRliYI-3" edge="1">
          <mxGeometry relative="1" as="geometry">
            <Array as="points">
              <mxPoint x="880" y="2415" />
              <mxPoint x="880" y="203" />
            </Array>
          </mxGeometry>
        </mxCell>
        <mxCell id="rN_voGvL153HVdvRliYI-105" style="edgeStyle=orthogonalEdgeStyle;rounded=0;orthogonalLoop=1;jettySize=auto;html=1;entryX=0.5;entryY=0;entryDx=0;entryDy=0;" parent="1" source="rN_voGvL153HVdvRliYI-97" target="rN_voGvL153HVdvRliYI-104" edge="1">
          <mxGeometry relative="1" as="geometry" />
        </mxCell>
        <mxCell id="rN_voGvL153HVdvRliYI-97" value="좌석이 정상 배정 됐는지?" style="rhombus;whiteSpace=wrap;html=1;" parent="1" vertex="1">
          <mxGeometry x="1128.75" y="2390" width="190" height="50" as="geometry" />
        </mxCell>
        <mxCell id="rN_voGvL153HVdvRliYI-103" value="&lt;font style=&quot;font-size: 11px;&quot;&gt;index; index &amp;lt; costs.length; index++&lt;/font&gt;" style="swimlane;whiteSpace=wrap;html=1;align=right;" parent="1" vertex="1">
          <mxGeometry x="1061" y="2600" width="360" height="270" as="geometry" />
        </mxCell>
        <mxCell id="rN_voGvL153HVdvRliYI-109" style="edgeStyle=orthogonalEdgeStyle;rounded=0;orthogonalLoop=1;jettySize=auto;html=1;" parent="rN_voGvL153HVdvRliYI-103" source="rN_voGvL153HVdvRliYI-107" edge="1">
          <mxGeometry relative="1" as="geometry">
            <mxPoint x="49" y="40" as="targetPoint" />
          </mxGeometry>
        </mxCell>
        <mxCell id="rN_voGvL153HVdvRliYI-110" style="edgeStyle=orthogonalEdgeStyle;rounded=0;orthogonalLoop=1;jettySize=auto;html=1;entryX=0.5;entryY=0;entryDx=0;entryDy=0;" parent="rN_voGvL153HVdvRliYI-103" source="rN_voGvL153HVdvRliYI-107" target="rN_voGvL153HVdvRliYI-108" edge="1">
          <mxGeometry relative="1" as="geometry" />
        </mxCell>
        <mxCell id="rN_voGvL153HVdvRliYI-107" value="해당 요소의 출발역과 도착역이&lt;br&gt;지정한 출발역과 도착역과&lt;br&gt;같은지?" style="rhombus;whiteSpace=wrap;html=1;" parent="rN_voGvL153HVdvRliYI-103" vertex="1">
          <mxGeometry x="86.38" y="50" width="190" height="60" as="geometry" />
        </mxCell>
        <mxCell id="rN_voGvL153HVdvRliYI-111" style="edgeStyle=orthogonalEdgeStyle;rounded=0;orthogonalLoop=1;jettySize=auto;html=1;" parent="rN_voGvL153HVdvRliYI-103" source="rN_voGvL153HVdvRliYI-108" edge="1">
          <mxGeometry relative="1" as="geometry">
            <mxPoint x="181.375" y="300" as="targetPoint" />
          </mxGeometry>
        </mxCell>
        <mxCell id="rN_voGvL153HVdvRliYI-108" value="가격 변수에 해당 가격 저장" style="rounded=0;whiteSpace=wrap;html=1;" parent="rN_voGvL153HVdvRliYI-103" vertex="1">
          <mxGeometry x="102.75" y="160" width="157.25" height="60" as="geometry" />
        </mxCell>
        <mxCell id="rN_voGvL153HVdvRliYI-179" value="&lt;h1&gt;&lt;span style=&quot;font-size: 10px;&quot;&gt;Yes&lt;/span&gt;&lt;/h1&gt;" style="text;html=1;strokeColor=none;fillColor=none;spacing=5;spacingTop=-20;whiteSpace=wrap;overflow=hidden;rounded=0;" parent="rN_voGvL153HVdvRliYI-103" vertex="1">
          <mxGeometry x="180" y="100" width="30" height="30" as="geometry" />
        </mxCell>
        <mxCell id="rN_voGvL153HVdvRliYI-180" value="&lt;h1&gt;&lt;span style=&quot;font-size: 10px;&quot;&gt;No&lt;/span&gt;&lt;/h1&gt;" style="text;html=1;strokeColor=none;fillColor=none;spacing=5;spacingTop=-20;whiteSpace=wrap;overflow=hidden;rounded=0;" parent="rN_voGvL153HVdvRliYI-103" vertex="1">
          <mxGeometry x="56.38000000000011" y="50" width="30" height="30" as="geometry" />
        </mxCell>
        <mxCell id="rN_voGvL153HVdvRliYI-106" style="edgeStyle=orthogonalEdgeStyle;rounded=0;orthogonalLoop=1;jettySize=auto;html=1;entryX=0.45;entryY=-0.014;entryDx=0;entryDy=0;entryPerimeter=0;" parent="1" source="rN_voGvL153HVdvRliYI-104" target="rN_voGvL153HVdvRliYI-103" edge="1">
          <mxGeometry relative="1" as="geometry" />
        </mxCell>
        <mxCell id="rN_voGvL153HVdvRliYI-104" value="가격 저장할 변수" style="rounded=0;whiteSpace=wrap;html=1;" parent="1" vertex="1">
          <mxGeometry x="1163.75" y="2480" width="120" height="60" as="geometry" />
        </mxCell>
        <mxCell id="rN_voGvL153HVdvRliYI-120" style="edgeStyle=orthogonalEdgeStyle;rounded=0;orthogonalLoop=1;jettySize=auto;html=1;entryX=0.5;entryY=0;entryDx=0;entryDy=0;" parent="1" source="rN_voGvL153HVdvRliYI-112" target="rN_voGvL153HVdvRliYI-113" edge="1">
          <mxGeometry relative="1" as="geometry" />
        </mxCell>
        <mxCell id="rN_voGvL153HVdvRliYI-112" value="예약 번호 생성" style="rounded=0;whiteSpace=wrap;html=1;" parent="1" vertex="1">
          <mxGeometry x="1162.38" y="2900" width="157.25" height="60" as="geometry" />
        </mxCell>
        <mxCell id="rN_voGvL153HVdvRliYI-116" style="edgeStyle=orthogonalEdgeStyle;rounded=0;orthogonalLoop=1;jettySize=auto;html=1;entryX=0.5;entryY=0;entryDx=0;entryDy=0;" parent="1" source="rN_voGvL153HVdvRliYI-113" target="rN_voGvL153HVdvRliYI-114" edge="1">
          <mxGeometry relative="1" as="geometry" />
        </mxCell>
        <mxCell id="rN_voGvL153HVdvRliYI-113" value="예약 정보 객체 생성" style="rounded=0;whiteSpace=wrap;html=1;" parent="1" vertex="1">
          <mxGeometry x="1161.5" y="3000" width="157.25" height="60" as="geometry" />
        </mxCell>
        <mxCell id="rN_voGvL153HVdvRliYI-114" value="예약 정보 객체 출력" style="shape=document;whiteSpace=wrap;html=1;boundedLbl=1;" parent="1" vertex="1">
          <mxGeometry x="1160" y="3100" width="160" height="50" as="geometry" />
        </mxCell>
        <mxCell id="rN_voGvL153HVdvRliYI-125" value="&lt;h1&gt;&lt;span style=&quot;font-size: 10px;&quot;&gt;Yes&lt;/span&gt;&lt;/h1&gt;" style="text;html=1;strokeColor=none;fillColor=none;spacing=5;spacingTop=-20;whiteSpace=wrap;overflow=hidden;rounded=0;" parent="1" vertex="1">
          <mxGeometry x="1200" y="310" width="30" height="30" as="geometry" />
        </mxCell>
        <mxCell id="rN_voGvL153HVdvRliYI-136" value="&lt;h1&gt;&lt;span style=&quot;font-size: 10px;&quot;&gt;Yes&lt;/span&gt;&lt;/h1&gt;" style="text;html=1;strokeColor=none;fillColor=none;spacing=5;spacingTop=-20;whiteSpace=wrap;overflow=hidden;rounded=0;" parent="1" vertex="1">
          <mxGeometry x="1208.75" y="1540" width="30" height="30" as="geometry" />
        </mxCell>
        <mxCell id="rN_voGvL153HVdvRliYI-147" value="&lt;h1&gt;&lt;span style=&quot;font-size: 10px;&quot;&gt;No&lt;/span&gt;&lt;/h1&gt;" style="text;html=1;strokeColor=none;fillColor=none;spacing=5;spacingTop=-20;whiteSpace=wrap;overflow=hidden;rounded=0;" parent="1" vertex="1">
          <mxGeometry x="1031" y="1470" width="30" height="30" as="geometry" />
        </mxCell>
        <mxCell id="rN_voGvL153HVdvRliYI-163" value="&lt;h1&gt;&lt;span style=&quot;font-size: 10px;&quot;&gt;Yes&lt;/span&gt;&lt;/h1&gt;" style="text;html=1;strokeColor=none;fillColor=none;spacing=5;spacingTop=-20;whiteSpace=wrap;overflow=hidden;rounded=0;" parent="1" vertex="1">
          <mxGeometry x="1226" y="2430" width="30" height="30" as="geometry" />
        </mxCell>
        <mxCell id="rN_voGvL153HVdvRliYI-164" value="&lt;h1&gt;&lt;span style=&quot;font-size: 10px;&quot;&gt;No&lt;/span&gt;&lt;/h1&gt;" style="text;html=1;strokeColor=none;fillColor=none;spacing=5;spacingTop=-20;whiteSpace=wrap;overflow=hidden;rounded=0;" parent="1" vertex="1">
          <mxGeometry x="1050" y="2380" width="30" height="30" as="geometry" />
        </mxCell>
        <mxCell id="rN_voGvL153HVdvRliYI-181" value="&lt;h1 style=&quot;line-height: 60%;&quot;&gt;&lt;span style=&quot;font-weight: normal;&quot;&gt;&lt;font style=&quot;font-size: 11px;&quot;&gt;존재하는 열차 변수 부터 실제&amp;nbsp;&lt;/font&gt;&lt;/span&gt;&lt;/h1&gt;&lt;h1 style=&quot;line-height: 60%;&quot;&gt;&lt;span style=&quot;font-weight: normal;&quot;&gt;&lt;font style=&quot;font-size: 11px;&quot;&gt;서비스 로직이다.&lt;/font&gt;&lt;/span&gt;&lt;/h1&gt;" style="text;html=1;strokeColor=none;fillColor=none;spacing=5;spacingTop=-20;whiteSpace=wrap;overflow=hidden;rounded=0;" parent="1" vertex="1">
          <mxGeometry x="1450" y="950" width="190" height="70" as="geometry" />
        </mxCell>
        <mxCell id="rN_voGvL153HVdvRliYI-192" style="edgeStyle=orthogonalEdgeStyle;rounded=0;orthogonalLoop=1;jettySize=auto;html=1;entryX=0.5;entryY=0;entryDx=0;entryDy=0;" parent="1" source="rN_voGvL153HVdvRliYI-182" target="rN_voGvL153HVdvRliYI-183" edge="1">
          <mxGeometry relative="1" as="geometry">
            <Array as="points">
              <mxPoint x="1800" y="130" />
              <mxPoint x="1800" y="130" />
            </Array>
          </mxGeometry>
        </mxCell>
        <mxCell id="rN_voGvL153HVdvRliYI-182" value="시작" style="rounded=1;whiteSpace=wrap;html=1;" parent="1" vertex="1">
          <mxGeometry x="1720" y="70" width="170" height="50" as="geometry" />
        </mxCell>
        <mxCell id="rN_voGvL153HVdvRliYI-188" style="edgeStyle=orthogonalEdgeStyle;rounded=0;orthogonalLoop=1;jettySize=auto;html=1;entryX=0.5;entryY=0;entryDx=0;entryDy=0;" parent="1" source="rN_voGvL153HVdvRliYI-183" target="rN_voGvL153HVdvRliYI-184" edge="1">
          <mxGeometry relative="1" as="geometry" />
        </mxCell>
        <mxCell id="rN_voGvL153HVdvRliYI-183" value="예약 번호" style="shape=parallelogram;perimeter=parallelogramPerimeter;whiteSpace=wrap;html=1;fixedSize=1;" parent="1" vertex="1">
          <mxGeometry x="1710" y="160" width="180" height="45" as="geometry" />
        </mxCell>
        <mxCell id="rN_voGvL153HVdvRliYI-186" style="edgeStyle=orthogonalEdgeStyle;rounded=0;orthogonalLoop=1;jettySize=auto;html=1;entryX=1;entryY=0.5;entryDx=0;entryDy=0;" parent="1" source="rN_voGvL153HVdvRliYI-184" target="rN_voGvL153HVdvRliYI-185" edge="1">
          <mxGeometry relative="1" as="geometry" />
        </mxCell>
        <mxCell id="rN_voGvL153HVdvRliYI-194" style="edgeStyle=orthogonalEdgeStyle;rounded=0;orthogonalLoop=1;jettySize=auto;html=1;entryX=0.5;entryY=0;entryDx=0;entryDy=0;" parent="1" source="rN_voGvL153HVdvRliYI-184" target="rN_voGvL153HVdvRliYI-193" edge="1">
          <mxGeometry relative="1" as="geometry" />
        </mxCell>
        <mxCell id="rN_voGvL153HVdvRliYI-184" value="예약 번호가&lt;br&gt;빈값이 아닌지?" style="rhombus;whiteSpace=wrap;html=1;" parent="1" vertex="1">
          <mxGeometry x="1720" y="240" width="160" height="50" as="geometry" />
        </mxCell>
        <mxCell id="rN_voGvL153HVdvRliYI-187" style="edgeStyle=orthogonalEdgeStyle;rounded=0;orthogonalLoop=1;jettySize=auto;html=1;" parent="1" source="rN_voGvL153HVdvRliYI-185" target="rN_voGvL153HVdvRliYI-183" edge="1">
          <mxGeometry relative="1" as="geometry">
            <Array as="points">
              <mxPoint x="1610" y="183" />
            </Array>
          </mxGeometry>
        </mxCell>
        <mxCell id="rN_voGvL153HVdvRliYI-185" value="예약번호를 입력하세요" style="shape=document;whiteSpace=wrap;html=1;boundedLbl=1;" parent="1" vertex="1">
          <mxGeometry x="1540" y="240" width="140" height="50" as="geometry" />
        </mxCell>
        <mxCell id="rN_voGvL153HVdvRliYI-204" style="edgeStyle=orthogonalEdgeStyle;rounded=0;orthogonalLoop=1;jettySize=auto;html=1;entryX=0.5;entryY=0;entryDx=0;entryDy=0;" parent="1" source="rN_voGvL153HVdvRliYI-193" target="rN_voGvL153HVdvRliYI-195" edge="1">
          <mxGeometry relative="1" as="geometry" />
        </mxCell>
        <mxCell id="rN_voGvL153HVdvRliYI-193" value="예약 정보를 저장할 변수" style="rounded=0;whiteSpace=wrap;html=1;" parent="1" vertex="1">
          <mxGeometry x="1720" y="320" width="160" height="40" as="geometry" />
        </mxCell>
        <mxCell id="rN_voGvL153HVdvRliYI-195" value="index; index &amp;lt; reservaions.length; index++" style="swimlane;whiteSpace=wrap;html=1;align=right;" parent="1" vertex="1">
          <mxGeometry x="1640" y="400" width="320" height="280" as="geometry" />
        </mxCell>
        <mxCell id="rN_voGvL153HVdvRliYI-203" style="edgeStyle=orthogonalEdgeStyle;rounded=0;orthogonalLoop=1;jettySize=auto;html=1;entryX=0.5;entryY=0;entryDx=0;entryDy=0;" parent="rN_voGvL153HVdvRliYI-195" source="rN_voGvL153HVdvRliYI-196" target="rN_voGvL153HVdvRliYI-197" edge="1">
          <mxGeometry relative="1" as="geometry" />
        </mxCell>
        <mxCell id="rN_voGvL153HVdvRliYI-196" value="해당 인덱스의&lt;br&gt;예약정보 가져오기" style="rounded=0;whiteSpace=wrap;html=1;" parent="rN_voGvL153HVdvRliYI-195" vertex="1">
          <mxGeometry x="80" y="40" width="160" height="40" as="geometry" />
        </mxCell>
        <mxCell id="rN_voGvL153HVdvRliYI-201" style="edgeStyle=orthogonalEdgeStyle;rounded=0;orthogonalLoop=1;jettySize=auto;html=1;entryX=0.5;entryY=0;entryDx=0;entryDy=0;" parent="rN_voGvL153HVdvRliYI-195" source="rN_voGvL153HVdvRliYI-197" target="rN_voGvL153HVdvRliYI-198" edge="1">
          <mxGeometry relative="1" as="geometry" />
        </mxCell>
        <mxCell id="rN_voGvL153HVdvRliYI-202" style="edgeStyle=orthogonalEdgeStyle;rounded=0;orthogonalLoop=1;jettySize=auto;html=1;" parent="rN_voGvL153HVdvRliYI-195" source="rN_voGvL153HVdvRliYI-197" edge="1">
          <mxGeometry relative="1" as="geometry">
            <mxPoint x="40" y="40" as="targetPoint" />
          </mxGeometry>
        </mxCell>
        <mxCell id="rN_voGvL153HVdvRliYI-197" value="입력한 예약 번호와 해당 예약정보의 예약 번호가 같은지?" style="rhombus;whiteSpace=wrap;html=1;" parent="rN_voGvL153HVdvRliYI-195" vertex="1">
          <mxGeometry x="80" y="120" width="160" height="50" as="geometry" />
        </mxCell>
        <mxCell id="rN_voGvL153HVdvRliYI-198" value="예약 정보 변수에 해당 예약 정보 저장" style="rounded=0;whiteSpace=wrap;html=1;" parent="rN_voGvL153HVdvRliYI-195" vertex="1">
          <mxGeometry x="80" y="200" width="160" height="40" as="geometry" />
        </mxCell>
        <mxCell id="rN_voGvL153HVdvRliYI-206" value="&lt;h1&gt;&lt;span style=&quot;font-size: 10px;&quot;&gt;Yes&lt;/span&gt;&lt;/h1&gt;" style="text;html=1;strokeColor=none;fillColor=none;spacing=5;spacingTop=-20;whiteSpace=wrap;overflow=hidden;rounded=0;" parent="rN_voGvL153HVdvRliYI-195" vertex="1">
          <mxGeometry x="160" y="80" width="30" height="30" as="geometry" />
        </mxCell>
        <mxCell id="rN_voGvL153HVdvRliYI-208" value="&lt;h1&gt;&lt;span style=&quot;font-size: 10px;&quot;&gt;NO&lt;/span&gt;&lt;/h1&gt;" style="text;html=1;strokeColor=none;fillColor=none;spacing=5;spacingTop=-20;whiteSpace=wrap;overflow=hidden;rounded=0;" parent="rN_voGvL153HVdvRliYI-195" vertex="1">
          <mxGeometry x="40" y="110" width="30" height="30" as="geometry" />
        </mxCell>
        <mxCell id="rN_voGvL153HVdvRliYI-199" value="예약 정보 출력" style="shape=document;whiteSpace=wrap;html=1;boundedLbl=1;" parent="1" vertex="1">
          <mxGeometry x="1730" y="720" width="120" height="50" as="geometry" />
        </mxCell>
        <mxCell id="rN_voGvL153HVdvRliYI-200" style="edgeStyle=orthogonalEdgeStyle;rounded=0;orthogonalLoop=1;jettySize=auto;html=1;entryX=0.571;entryY=0.02;entryDx=0;entryDy=0;entryPerimeter=0;" parent="1" source="rN_voGvL153HVdvRliYI-198" target="rN_voGvL153HVdvRliYI-199" edge="1">
          <mxGeometry relative="1" as="geometry" />
        </mxCell>
        <mxCell id="rN_voGvL153HVdvRliYI-205" value="&lt;h1&gt;&lt;span style=&quot;font-size: 10px;&quot;&gt;Yes&lt;/span&gt;&lt;/h1&gt;" style="text;html=1;strokeColor=none;fillColor=none;spacing=5;spacingTop=-20;whiteSpace=wrap;overflow=hidden;rounded=0;" parent="1" vertex="1">
          <mxGeometry x="1800" y="280" width="30" height="30" as="geometry" />
        </mxCell>
        <mxCell id="rN_voGvL153HVdvRliYI-207" value="&lt;h1&gt;&lt;span style=&quot;font-size: 10px;&quot;&gt;NO&lt;/span&gt;&lt;/h1&gt;" style="text;html=1;strokeColor=none;fillColor=none;spacing=5;spacingTop=-20;whiteSpace=wrap;overflow=hidden;rounded=0;" parent="1" vertex="1">
          <mxGeometry x="1690" y="230" width="30" height="30" as="geometry" />
        </mxCell>
      </root>
    </mxGraphModel>
  </diagram>
</mxfile>
